<svg xmlns="http://www.w3.org/2000/svg" viewBox="0 0 99.84 125.27"><defs><style>.cls-1{fill:#8bc540;}.cls-2{fill:none;stroke:#8bc540;stroke-miterlimit:10;stroke-width:2px;}.cls-3{fill:#8bc53f;}.cls-4{fill:#8cc63f;}</style></defs><title>Asset 2</title><g id="Layer_2" data-name="Layer 2"><g id="Layer_1-2" data-name="Layer 1"><path class="cls-1" d="M50.09,44.06,35.51,23.31l-4.83-7.7v-1H47.94L78.54,59,93.12,84.41H78.54Z"/><path class="cls-1" d="M5.13,14.59H19.71V84.41H5.13Z"/><path class="cls-1" d="M5.43,88.73H11.3c3.37,0,5.67,2.05,5.67,5.44s-2.3,5.47-5.67,5.47H9v6.3H5.43Zm5.82,3.47H9v4h2.23a2,2,0,1,0,0-4Z"/><path class="cls-1" d="M19.58,88.73h5.95c3.37,0,5.69,1.82,5.69,5a4.23,4.23,0,0,1-3.11,4.35c2.15,1.11,3.44,4.15,3.85,7.84H28.24c-.61-3.74-2.08-6.4-4.18-6.4h-.89v6.4H19.58Zm5.95,3.47H23.17v3.87h2.35a1.94,1.94,0,1,0,0-3.87Z"/><path class="cls-1" d="M62.77,102.27H56.61l-1.29,3.67h-4l6.38-17.21h4l6.38,17.21h-4Zm-5-3.47h3.8l-1.9-5.36Z"/><path class="cls-1" d="M81.14,105.33a9.15,9.15,0,0,1-3.92.88,8.88,8.88,0,0,1,0-17.77,9.11,9.11,0,0,1,3.92.89v4.12A6,6,0,0,0,77.22,92a5.29,5.29,0,0,0,0,10.58,6,6,0,0,0,3.92-1.39Z"/><path class="cls-1" d="M86.94,92.2H82.77V88.73H94.71V92.2H90.53v13.74H86.94Z"/><rect class="cls-2" x="1" y="11.48" width="97.84" height="97.84"/><path id="fingerprints" class="cls-1" d="M49.63,90.58c-3.43-3.43-9.38-3.06-13.26.83s-4.26,9.84-.83,13.26,9.38,3.06,13.26-.83S53.06,94,49.63,90.58ZM36.19,104a6.4,6.4,0,0,1-.72-.86,5.06,5.06,0,0,1,2.09-1.41,11.52,11.52,0,0,1,.74,3.67A6.43,6.43,0,0,1,36.19,104ZM39,105.67c0-.53-.12-1.28-.24-2a5.19,5.19,0,0,0-.81-2.38c-.37-.37-1.18-.45-2.92,1.19a5.45,5.45,0,0,1-.29-.64c1.19-.95,3.17-2,3.81-1.37a3.78,3.78,0,0,1,.38,1.49c.07.53.16,1.12.32,1.79a15.51,15.51,0,0,0,.68,2.14A6.72,6.72,0,0,1,39,105.67Zm8.64-2.38a5.73,5.73,0,0,1,.06-5.85L47.1,97a6.27,6.27,0,0,0,.08,6.75l-.38.29c-2-2.51-.83-6.33-.82-6.37l-.68-.35c-.05.17-1.28,4.21,1,7.08l-.4.25c-2.44-2.58-1.21-6.43-1.19-6.47L44,97.78c-.06.18-1.35,4.19,1.32,7.13a6.82,6.82,0,0,1-.66.31,11.37,11.37,0,0,1-1.43-3.15,11.1,11.1,0,0,1-.13-1.19,5.19,5.19,0,0,0-1.33-3.66c-2.49-2.49-6.56-.69-6.73-.61l.41.65s3.8-1.69,5.88.39a4.36,4.36,0,0,1,1.06,3.1,11.89,11.89,0,0,0,.14,1.27,12,12,0,0,0,1.53,3.42l-.58.18a7.51,7.51,0,0,1-1.5-3.53c0-.21,0-.46,0-.72a4.29,4.29,0,0,0-1-3.19c-2.52-2.52-6.21-.21-6.36-.11l.48.62s3.39-2.14,5.45-.08a3.62,3.62,0,0,1,.71,2.6c0,.27,0,.53,0,.77a8.24,8.24,0,0,0,1.54,3.79,7.25,7.25,0,0,1-.73.12,8.13,8.13,0,0,1-1.16-3l-.69-.06A9.33,9.33,0,0,0,41.42,106c-.25,0-.5,0-.75,0a14.78,14.78,0,0,1-.72-2.21c-.15-.63-.23-1.21-.31-1.72a3.51,3.51,0,0,0-.64-2c-1.21-1.21-3.54.29-4.51,1a9.32,9.32,0,0,1,2.71-8.81c3.53-3.53,8.81-4,11.78-1,2.81,2.81,2.55,7.69-.48,11.19-.76-1-.29-2.39.14-3.62.06-.19.13-.38.19-.56.56-1.74.95-3.69-.4-5l-.43.43c1,1,.65,2.72.15,4.25l-.19.56c-.47,1.38-1.06,3.08.12,4.45L48,103ZM38.13,93.17l-.56-.56c3.3-3.3,8.22-3.73,11-1,2.17,2.17,2.44,5.74.66,8.86l-.63-.45c1.63-2.87,1.45-6.07-.46-8C45.67,89.62,41.18,90.11,38.13,93.17Zm1.36.47L39,93.05c2-1.63,5-3.17,8.06-1.24l-.26.57C44.07,90.69,41.32,92.13,39.49,93.64ZM42.72,98l-.27-.7s3.86-.66,4.69-2.07a1.17,1.17,0,0,0-.06-1.31A2,2,0,0,0,45.63,93c-2.07-.08-4.85,1.85-4.87,1.87l-.49-.61c.12-.08,3-2.05,5.22-2a3,3,0,0,1,2.14,1.31,1.86,1.86,0,0,1,.14,2.05C46.82,97.27,42.89,97.94,42.72,98ZM35,100.15l-.47-.63c.23-.14,2.25-1.35,3.5-1.07v.69C37.25,99,35.73,99.66,35,100.15Zm4-1-.33-.68a1.6,1.6,0,0,1,1.56.81l-.54.32C39.3,99.12,39,99.19,39,99.19Zm1.17,2.73a2.31,2.31,0,0,1-.12-1.5l.68.33a1.65,1.65,0,0,0,.07,1Zm1.36-5.13-.21-.7c1.84-.1,4.82-.63,5-1.62l.7.27C46.7,96.46,42,96.76,41.5,96.79Zm1.63-1.53-.56-.56c.07-.07,1.68-1.65,3.33-.89l-.15.63C44.74,94,43.52,94.87,43.14,95.26ZM36,95.85l-.37-.67a5.66,5.66,0,0,1,1.81-.34l.12.7A5.17,5.17,0,0,0,36,95.85Zm2.23-.3-.41-.66a2,2,0,0,1,1.67.1,2.43,2.43,0,0,0,1.9-.08l.42.65a3.11,3.11,0,0,1-2.51,0A1.33,1.33,0,0,0,38.28,95.55Zm-1.62-1.21-.26-.7a11.25,11.25,0,0,1,2.21-.08l.11.7A10.79,10.79,0,0,0,36.66,94.34Z"/><path class="cls-3" d="M13.85,119.19l.57,2.19c.12.48.24.93.32,1.37h0c.1-.44.24-.9.38-1.36l.7-2.2h.66l.67,2.15c.16.52.29,1,.38,1.41h0a12.82,12.82,0,0,1,.33-1.4l.61-2.16h.78l-1.39,4.31H17.2l-.66-2.06a14.4,14.4,0,0,1-.38-1.42h0a12.77,12.77,0,0,1-.39,1.43l-.7,2h-.71L13,119.19Z"/><path class="cls-3" d="M20.51,119.19l.57,2.19c.12.48.24.93.32,1.37h0c.1-.44.24-.9.38-1.36l.7-2.2h.66l.67,2.15c.16.52.29,1,.38,1.41h0a12.82,12.82,0,0,1,.33-1.4l.61-2.16H26l-1.39,4.31h-.71l-.66-2.06a14.4,14.4,0,0,1-.38-1.42h0a12.77,12.77,0,0,1-.39,1.43l-.7,2H21l-1.3-4.31Z"/><path class="cls-3" d="M27.17,119.19l.57,2.19c.12.48.24.93.32,1.37h0c.1-.44.24-.9.38-1.36l.7-2.2h.66l.67,2.15c.16.52.29,1,.38,1.41h0a12.82,12.82,0,0,1,.33-1.4l.61-2.16h.78l-1.39,4.31h-.71l-.66-2.06a14.4,14.4,0,0,1-.38-1.42h0a12.77,12.77,0,0,1-.39,1.43l-.7,2h-.71l-1.3-4.31Z"/><path class="cls-3" d="M32.88,123a.53.53,0,0,1,.53-.56.56.56,0,1,1-.53.56Z"/><path class="cls-3" d="M35.79,118a.49.49,0,0,1-1,0,.48.48,0,0,1,.49-.49A.47.47,0,0,1,35.79,118Zm-.87,5.52v-4.31h.78v4.31Z"/><path class="cls-3" d="M37,120.36c0-.45,0-.81,0-1.17h.7l0,.71h0a1.58,1.58,0,0,1,1.43-.81c.6,0,1.52.36,1.52,1.84v2.57h-.78V121c0-.7-.26-1.27-1-1.27a1.12,1.12,0,0,0-1.05.8,1.14,1.14,0,0,0-.05.37v2.59H37Z"/><path class="cls-3" d="M41.94,120.6c0-.55,0-1,0-1.41h.7l0,.74h0a1.69,1.69,0,0,1,1.53-.84A2,2,0,0,1,46,121.28a2,2,0,0,1-2,2.32,1.51,1.51,0,0,1-1.33-.68h0v2.34h-.77Zm.77,1.15a1.73,1.73,0,0,0,0,.32,1.21,1.21,0,0,0,1.18.92c.83,0,1.31-.68,1.31-1.67s-.45-1.6-1.28-1.6a1.25,1.25,0,0,0-1.18,1,1.28,1.28,0,0,0-.05.32Z"/><path class="cls-3" d="M47,120.54c0-.51,0-.94,0-1.34h.69l0,.85h0a1.29,1.29,0,0,1,1.19-.94.89.89,0,0,1,.22,0v.74a1.24,1.24,0,0,0-.27,0,1.1,1.1,0,0,0-1.05,1,2.21,2.21,0,0,0,0,.36v2.3H47Z"/><path class="cls-3" d="M53.73,121.31a2.11,2.11,0,0,1-2.15,2.29,2,2,0,0,1-2.07-2.22,2.11,2.11,0,0,1,2.14-2.29A2,2,0,0,1,53.73,121.31Zm-3.42,0c0,.94.54,1.66,1.31,1.66s1.31-.7,1.31-1.68c0-.73-.37-1.66-1.29-1.66S50.31,120.54,50.31,121.36Z"/><path class="cls-3" d="M57.11,123.5,57,123h0a1.6,1.6,0,0,1-1.32.64,1.23,1.23,0,0,1-1.32-1.24c0-1,.93-1.61,2.59-1.6v-.09a.89.89,0,0,0-1-1,2.15,2.15,0,0,0-1.12.32l-.18-.52a2.68,2.68,0,0,1,1.42-.38c1.32,0,1.64.9,1.64,1.76v1.61a6,6,0,0,0,.07,1ZM57,121.3c-.85,0-1.83.13-1.83,1a.69.69,0,0,0,.74.75,1.07,1.07,0,0,0,1-.72.82.82,0,0,0,0-.25Z"/><path class="cls-3" d="M62.09,123.34a2.88,2.88,0,0,1-1.24.25,2,2,0,0,1-2.15-2.2A2.19,2.19,0,0,1,61,119.1a2.64,2.64,0,0,1,1.09.22l-.18.61a1.82,1.82,0,0,0-.91-.2A1.62,1.62,0,0,0,61,123a2.24,2.24,0,0,0,1-.21Z"/><path class="cls-3" d="M64.07,118v1.24h1.12v.6H64.07v2.32c0,.53.15.84.59.84a1.75,1.75,0,0,0,.45-.05l0,.59a1.89,1.89,0,0,1-.69.11,1.09,1.09,0,0,1-.85-.33,1.6,1.6,0,0,1-.3-1.12v-2.35h-.67v-.6h.67v-1Z"/><path class="cls-3" d="M65.86,123a.53.53,0,0,1,.53-.56.56.56,0,1,1-.53.56Z"/><path class="cls-3" d="M71,123.34a2.88,2.88,0,0,1-1.24.25,2,2,0,0,1-2.15-2.2,2.19,2.19,0,0,1,2.32-2.29,2.64,2.64,0,0,1,1.09.22l-.18.61a1.82,1.82,0,0,0-.91-.2,1.62,1.62,0,0,0,0,3.24,2.24,2.24,0,0,0,1-.21Z"/><path class="cls-3" d="M75.73,121.31a2.11,2.11,0,0,1-2.15,2.29,2,2,0,0,1-2.07-2.22,2.11,2.11,0,0,1,2.14-2.29A2,2,0,0,1,75.73,121.31Zm-3.42,0c0,.94.55,1.66,1.31,1.66s1.31-.7,1.31-1.68c0-.73-.36-1.66-1.29-1.66S72.3,120.54,72.3,121.36Z"/><path class="cls-3" d="M76.31,123a.53.53,0,1,1,.52.56A.53.53,0,0,1,76.31,123Z"/><path class="cls-3" d="M78.34,120.36c0-.45,0-.81,0-1.17H79l0,.71h0a1.58,1.58,0,0,1,1.43-.81c.6,0,1.52.36,1.52,1.84v2.57h-.78V121c0-.7-.26-1.27-1-1.27a1.12,1.12,0,0,0-1.05.8,1.14,1.14,0,0,0-.05.37v2.59h-.78Z"/><path class="cls-3" d="M82.8,123l2-2.54c.19-.23.37-.44.56-.67v0H83v-.63h3.29v.49l-1.93,2.5c-.18.24-.36.45-.55.68v0H86.3v.62H82.8Z"/><path class="cls-4" d="M19.55,5.18h-1V.31h1Z"/><path class="cls-4" d="M23.64,3.07V5.18h-1v-2c0-.47-.12-.77-.53-.77a.88.88,0,0,0-.76.47V5.18h-1V2.75c0-.4,0-.75,0-1.08l.83,0,.07.47h0a1.49,1.49,0,0,1,1.13-.53C23.22,1.59,23.64,2.12,23.64,3.07Z"/><path class="cls-4" d="M25,0a.54.54,0,0,1,.54.54.53.53,0,0,1-1.06,0A.53.53,0,0,1,25,0Zm-.48,1.67,1,0V5.18h-1Z"/><path class="cls-4" d="M26.43,2.38H26l0-.67.44,0,.06-.8.85-.18v1h.82l0,.7h-.77V3.85c0,.48.21.6.5.6a1.32,1.32,0,0,0,.31,0v.73a2.51,2.51,0,0,1-.75.1c-.73,0-1-.39-1-1.31Z"/><path class="cls-4" d="M29.3,0a.54.54,0,0,1,.54.54.53.53,0,0,1-1.06,0A.53.53,0,0,1,29.3,0Zm-.48,1.67,1,0V5.18h-1Z"/><path class="cls-4" d="M33.42,3.85c0,.56.1.65.44.56v.73c-.51.17-1.11.15-1.33-.37h0a1.3,1.3,0,0,1-1,.47,1,1,0,0,1-1-1c0-.78.63-1.43,2-1V2.88c0-.31-.08-.54-.63-.54a3.21,3.21,0,0,0-1.15.23l0-.72a2.94,2.94,0,0,1,1.29-.28c.75,0,1.49.27,1.49,1.08Zm-.94.3V3.79c-.88-.29-1.1,0-1.1.37a.41.41,0,0,0,.46.42A.67.67,0,0,0,32.48,4.15Z"/><path class="cls-4" d="M34.46,2.38H34l0-.67.44,0,.06-.8.85-.18v1h.82l0,.7h-.77V3.85c0,.48.21.6.5.6a1.32,1.32,0,0,0,.31,0v.73a2.51,2.51,0,0,1-.75.1c-.73,0-1-.39-1-1.31Z"/><path class="cls-4" d="M37.33,0a.54.54,0,0,1,.54.54.53.53,0,0,1-1.06,0A.53.53,0,0,1,37.33,0Zm-.48,1.67,1,0V5.18h-1Z"/><path class="cls-4" d="M39.51,5.18l-1.24-3.5h1L40,4.25h0l.7-2.57h1L40.5,5.18Z"/><path class="cls-4" d="M42,3.47a1.7,1.7,0,0,1,1.73-1.88c1.18,0,1.63,1,1.42,2.08H43c0,.63.44.85,1,.85a3.4,3.4,0,0,0,1-.17v.73a3.91,3.91,0,0,1-1.2.16A1.61,1.61,0,0,1,42,3.47ZM44.3,3a.6.6,0,0,0-.62-.72A.73.73,0,0,0,43,3Z"/><path class="cls-4" d="M47.34,4.22c0-.57-1.6-.45-1.6-1.53,0-.7.58-1.1,1.37-1.1a2.62,2.62,0,0,1,1,.2l0,.69a2.71,2.71,0,0,0-1-.2c-.27,0-.46.1-.46.31,0,.52,1.61.41,1.61,1.53,0,.74-.58,1.13-1.46,1.13A3,3,0,0,1,45.68,5l.12-.72a2.94,2.94,0,0,0,1,.24C47.17,4.57,47.34,4.43,47.34,4.22Z"/><path class="cls-4" d="M53.65,5.18c-1-1.78-1.49-2.7-1.86-3.49h0l0,1.45v2h-.91V.31H52c.63,1.13,1.29,2.27,1.81,3.42h0l0-1.45v-2h.92V5.18Z"/><path class="cls-4" d="M58.35,3.85c0,.56.1.65.44.56v.73c-.51.17-1.11.15-1.33-.37h0a1.3,1.3,0,0,1-1,.47,1,1,0,0,1-1-1c0-.78.63-1.43,2-1V2.88c0-.31-.08-.54-.63-.54a3.21,3.21,0,0,0-1.15.23l0-.72a2.94,2.94,0,0,1,1.29-.28c.75,0,1.49.27,1.49,1.08Zm-.94.3V3.79c-.88-.29-1.1,0-1.1.37a.41.41,0,0,0,.46.42A.67.67,0,0,0,57.4,4.15Z"/><path class="cls-4" d="M60.09,5.18l-1.24-3.5h1l.7,2.57h0l.7-2.57h1l-1.24,3.5Z"/><path class="cls-4" d="M63.25,0a.54.54,0,0,1,.54.54.53.53,0,0,1-1.06,0A.53.53,0,0,1,63.25,0Zm-.48,1.67,1,0V5.18h-1Z"/><path class="cls-4" d="M66.09,4.22a2,2,0,0,1-.72-.14c-.17.25-.22.54.12.54,1,0,2.53,0,2.53,1.09,0,.54-.49,1.16-2,1.16-.7,0-1.8-.12-1.8-.92a1.13,1.13,0,0,1,.58-.87h0c-.44-.36-.18-.88.2-1.17v0a1.17,1.17,0,0,1-.5-1,1.42,1.42,0,0,1,1.56-1.33,2.25,2.25,0,0,1,.6.08h1.39v.63h-.58a1.36,1.36,0,0,1,.15.6A1.45,1.45,0,0,1,66.09,4.22Zm-1,1.49c0,.41.64.45.92.45.93,0,1.08-.3,1.08-.46,0-.45-1.07-.45-1.77-.43A.6.6,0,0,0,65.11,5.72Zm1-2.13a.61.61,0,0,0,.65-.67.6.6,0,0,0-.65-.67.61.61,0,0,0-.66.67A.61.61,0,0,0,66.08,3.59Z"/><path class="cls-4" d="M71.28,3.85c0,.56.1.65.44.56v.73c-.51.17-1.11.15-1.33-.37h0a1.3,1.3,0,0,1-1,.47,1,1,0,0,1-1-1c0-.78.63-1.43,2-1V2.88c0-.31-.08-.54-.63-.54a3.21,3.21,0,0,0-1.15.23l0-.72a2.94,2.94,0,0,1,1.29-.28c.75,0,1.49.27,1.49,1.08Zm-.94.3V3.79c-.88-.29-1.1,0-1.1.37a.41.41,0,0,0,.46.42A.67.67,0,0,0,70.34,4.15Z"/><path class="cls-4" d="M72.33,2.38h-.45l0-.67.44,0,.06-.8.85-.18v1h.82l0,.7h-.77V3.85c0,.48.21.6.5.6a1.32,1.32,0,0,0,.31,0v.73a2.51,2.51,0,0,1-.75.1c-.73,0-1-.39-1-1.31Z"/><path class="cls-4" d="M76.29,5.25a1.68,1.68,0,0,1-1.77-1.81,1.77,1.77,0,1,1,3.53,0A1.68,1.68,0,0,1,76.29,5.25Zm0-2.95c-.48,0-.77.35-.77,1.12s.29,1.12.77,1.12.77-.35.77-1.12S76.77,2.31,76.29,2.31Z"/><path class="cls-4" d="M80.76,2.49a.87.87,0,0,0-1.08.39v2.3h-1V2.81c0-.45,0-.81,0-1.14l.83,0,.08.6h0a1.12,1.12,0,0,1,1.15-.64Z"/><rect class="cls-1" x="78.54" y="14.59" width="14.58" height="69.82"/><polygon class="cls-1" points="50.07 84.41 35.49 84.41 35.49 14.59 47.94 14.59 50.07 17.68 50.07 84.41"/></g></g></svg>